<svg width="58" height="45" viewBox="0 0 58 45" fill="none" xmlns="http://www.w3.org/2000/svg">
<path d="M26.0101 10.9215C26.4173 11.3059 26.7331 11.6598 27.0604 12.1127C27.2317 12.3486 27.3496 12.6264 27.5704 12.8243C27.6617 12.8243 27.5856 12.4628 27.5704 12.3981C27.5247 12.1583 27.4219 11.8539 27.342 11.6179C27.2964 11.4885 27.1023 11.1537 27.1327 11.0471C27.1441 11.0205 27.1632 10.9938 27.1898 10.9786C27.2925 10.9253 27.7416 11.127 27.89 11.1613C28.4647 11.2945 29.0279 11.2983 29.5988 11.1613C29.751 11.1232 30.3599 10.8835 30.4474 10.9367C30.4779 10.9862 30.474 11.0243 30.4626 11.0775C30.4208 11.264 30.2191 11.5837 30.1468 11.8006C30.0935 11.9604 29.9298 12.4894 30.0212 12.6226L30.0973 12.6417C30.2115 12.6188 30.4398 12.185 30.5273 12.0632C32.7612 9.06437 36.9094 7.94171 40.5057 8.21572C44.7375 8.53539 49.015 10.5676 53.2887 9.33457C54.9023 8.87028 56.299 7.97596 57.5434 6.87614L57.7375 6.84189C57.6728 7.49265 57.3037 8.15102 56.9574 8.70284C55.359 11.2412 52.1204 13.3267 49.0873 13.4675C44.4483 13.6806 40.7188 10.3316 35.9465 11.8653C33.4577 12.6645 31.513 14.495 30.6415 16.9686C30.337 17.8363 30.1886 18.9476 30.1163 19.8609C30.0897 20.1958 30.1353 20.6297 30.0821 20.9569C30.0478 21.1777 29.7243 21.3489 29.5455 21.4555C29.1421 21.699 28.5865 21.9883 28.1526 22.1671C28.0879 22.1938 27.8215 22.3041 27.7759 22.3079C27.4904 22.3155 27.5932 21.6077 27.5856 21.4136C27.4486 18.8068 27.3344 16.5348 25.599 14.4569C23.5821 12.0404 20.5794 11.1194 17.5007 11.5456C13.4173 12.1089 10.0645 14.5597 5.82123 12.9004C3.47697 11.9833 1.0566 10.0044 0.173695 7.59159C0.120416 7.44698 -0.157396 6.79241 0.12422 6.81144C0.253611 6.81905 0.969067 7.44698 1.14032 7.56876C3.38944 9.20898 6.11046 9.92063 8.88856 9.71132C10.8066 9.56671 12.6105 8.86267 14.4904 8.50494C18.5168 7.73621 22.8933 7.97977 26.0101 10.9215Z" fill="url(#paint0_linear_693_11131)" style="mix-blend-mode:multiply"/>
<path d="M16.1204 21.3948C16.0671 21.3339 16.1013 21.2654 16.1622 21.2236C17.7606 20.687 19.3399 19.8041 20.5387 18.6091C20.5577 18.5901 20.8051 18.3275 20.6757 18.3199C19.7129 18.8945 18.7577 19.4387 17.6845 19.7851C15.7893 20.3978 13.6163 20.3597 11.7858 19.5453C11.6297 19.4768 10.7126 19.0353 10.7392 18.8869C10.7735 18.8336 10.8229 18.7994 10.88 18.7842C11.2568 18.6814 11.8543 18.6814 12.2691 18.6167C13.563 18.4074 14.9216 17.9964 16.1394 17.5093C16.7521 17.2657 17.7492 16.8547 18.2287 16.4247C18.2477 16.4057 18.4342 16.2496 18.32 16.242C17.6388 16.4627 16.9804 16.7634 16.2878 16.9575C14.0996 17.574 11.6107 17.6463 9.42629 16.9803C8.07529 16.5693 6.08876 15.6027 5.08407 14.6056C4.91282 14.4343 4.7606 14.2669 5.12974 14.2821C5.96698 14.324 6.8613 14.5485 7.72517 14.4686C11.957 14.4686 15.6485 12.0444 19.8727 12.0825C20.0249 12.0825 20.2342 12.1129 20.2989 12.269C20.3827 12.463 20.4245 12.7941 20.4968 13.0187C20.984 14.5485 22.0077 15.8462 23.2978 16.7824C23.4576 16.9004 24.3101 17.4065 24.3405 17.5131C24.3519 17.5512 24.3519 17.5854 24.3405 17.6235C24.3177 17.6996 23.6821 18.2742 23.568 18.4074C23.0009 19.062 22.6775 19.8612 22.4682 20.6946C22.3578 20.8697 21.9658 21.0371 21.7717 21.1284C20.1619 21.8705 18.3238 22.2359 16.6075 21.6117C16.5162 21.5775 16.1622 21.4405 16.1128 21.3872L16.1204 21.3948Z" fill="#102F4B"/>
<path d="M52.0358 14.5674C52.1081 14.6283 51.6591 14.9061 51.6248 14.9327C51.465 15.0621 51.3242 15.2296 51.1491 15.3399C51.0007 15.4313 50.8371 15.4541 50.7039 15.534C50.3956 15.7167 50.114 15.964 49.7563 16.1429C47.1989 17.4064 44.2572 17.6461 41.5095 16.9002C40.7902 16.7061 40.0976 16.3712 39.3974 16.1734C39.2908 16.1429 39.1843 16.1087 39.0701 16.1201C39.0016 16.1772 39.405 16.4474 39.4392 16.4702C41.4905 17.806 43.9641 18.3007 46.3008 18.8563C46.3693 18.8715 46.4416 18.8868 46.4872 18.9438C46.5101 19.0428 45.8936 19.3206 45.7832 19.3701C43.2829 20.4547 40.52 20.2225 38.1529 18.9438C37.7191 18.7079 37.3119 18.4111 36.8704 18.1941C36.859 18.2512 36.9047 18.2664 36.9313 18.3007C37.0036 18.3882 37.1216 18.4948 37.2053 18.5747C38.2823 19.5794 39.6105 20.2758 40.8397 21.075C40.9272 21.231 40.8397 21.2653 40.7141 21.3224C39.5991 21.8095 37.898 21.6915 36.8172 21.1587C35.5537 20.5346 35.215 19.6441 34.3968 18.6356C34.1342 18.3121 33.727 18.0115 33.4949 17.7032C33.4454 17.6385 33.4035 17.6043 33.4302 17.5205C33.4644 17.4026 33.8868 17.178 34.0086 17.0867C35.3063 16.1391 36.155 15.0735 36.7601 13.5817C36.8666 13.3229 37.133 12.3906 37.2967 12.2574C37.407 12.166 37.8218 12.1356 37.9817 12.1204C39.8464 11.9491 41.1518 12.5428 42.8567 13.0756C45.5016 13.9014 48.2683 14.8033 51.0768 14.6549C51.21 14.6473 51.994 14.5255 52.0358 14.5636V14.5674Z" fill="#102F4B"/>
<path d="M31.5131 17.2009C31.612 17.1895 31.9469 17.3836 32.0535 17.4445C34.2493 18.7156 35.3568 20.9875 33.2028 22.9779C31.3875 24.6599 28.1413 25.7103 25.8846 26.7721C24.8609 27.2554 22.2959 28.3248 23.1636 29.8089C23.9818 31.2094 26.189 32.0428 27.5438 32.8154C27.7265 32.9181 28.1565 33.1084 27.8863 33.3215C27.5743 33.5689 26.9806 33.8201 26.6076 34.0598C26.4326 34.1702 25.9873 34.5469 25.8275 34.5622C25.7552 34.5698 25.7019 34.5546 25.6334 34.5393C25.4013 34.4861 24.8837 34.2082 24.6516 34.0865C22.5356 32.9981 19.3808 30.806 20.3474 28.0127C21.3369 25.1471 25.5459 24.1119 28.0804 23.1681C29.6674 22.5783 32.9098 21.2615 31.9545 19.0048C31.7795 18.59 31.4598 18.4339 31.2467 18.1257C31.1173 17.9354 31.2848 17.2238 31.5093 17.2009H31.5131Z" fill="#102F4B"/>
<path d="M27.4941 41.5492C27.3685 41.6709 26.2877 40.9745 26.1241 40.8604C24.4877 39.7111 23.7265 38.3639 24.8035 36.4611C25.4619 35.2965 26.5237 34.6115 27.6768 33.995C29.6785 32.918 31.9124 32.2026 33.6592 30.6993C34.603 29.8887 35.1206 29.1543 34.1615 28.0582C33.1607 26.9166 31.6156 26.2353 30.3103 25.5313C30.0933 25.4133 30.1276 25.3372 30.3217 25.1964C30.6109 24.9871 31.1132 24.7664 31.4405 24.5761C31.6422 24.4581 32.2892 24.0015 32.4566 23.9748C32.7497 23.9291 33.2025 24.1879 33.4689 24.3325C35.8474 25.6455 38.4847 27.7918 36.8826 30.8097C35.6419 33.1464 32.8067 34.1663 30.4739 35.0225C28.9669 35.5743 26.9803 36.0462 25.9414 37.3592C24.7579 38.8548 26.0327 40.0688 27.0831 41.0963C27.1402 41.1496 27.574 41.4769 27.4941 41.553V41.5492Z" fill="#102F4B"/>
<path d="M28.2202 0.0184745C32.5891 -0.247919 37.1139 2.38938 38.7922 6.45758C38.8379 6.56414 38.9559 6.8039 38.895 6.90665C38.8303 7.01701 38.2138 6.99037 38.0691 6.99798C37.8751 7.0094 37.5972 7.11215 37.426 6.99798C37.2928 6.91045 36.9617 6.24447 36.8437 6.05419C32.8897 -0.198446 24.2319 0.113614 20.5367 6.43856C20.4073 6.65928 20.3654 6.97134 20.0571 6.99798C19.8478 7.01701 18.9764 7.02082 18.8203 6.94851C18.7899 6.93329 18.7632 6.89904 18.7442 6.8724C18.7023 6.77726 18.8051 6.58697 18.847 6.48803C20.2817 2.84605 24.3765 0.250617 28.2202 0.0184745Z" fill="#102F4B"/>
<path d="M28.5301 4.59672C30.745 4.45591 32.2064 6.58325 31.5366 8.64209C30.9657 10.3927 28.6709 11.2299 27.122 10.1986C24.7511 8.62306 25.6226 4.78319 28.5301 4.59672Z" fill="#102F4B"/>
<path d="M26.1326 21.9427C26.3876 22.1939 26.7073 22.3803 26.9889 22.5973C27.1221 22.7571 26.9585 22.8484 26.8215 22.9169C26.4105 23.1186 25.8891 23.2937 25.4591 23.4764C25.1927 23.5905 24.7208 23.8645 24.4734 23.9254C24.1271 24.0091 23.9787 23.8303 23.7732 23.5867C22.0987 21.642 23.0805 19.2673 24.8882 17.8669C25.1127 17.6918 25.7026 17.277 25.95 17.1895C26.0413 17.1552 26.1479 17.1438 26.2354 17.1933C26.3534 17.2618 26.4828 17.8326 26.4561 17.9658C26.4257 18.1104 25.969 18.5481 25.8472 18.7307C25.1546 19.7621 25.2497 21.075 26.1403 21.9465L26.1326 21.9427Z" fill="#102F4B"/>
<path d="M29.8079 25.4706C29.8688 25.4591 29.9716 25.4401 29.9944 25.5124C30.002 26.03 29.9678 26.5475 29.9373 27.0651C29.8498 28.4351 29.7432 29.8166 29.6329 31.1866C29.6062 31.5405 29.6176 31.9363 29.5682 32.2826C29.5453 32.4386 29.4959 32.5909 29.3551 32.6822C29.2447 32.7545 28.6967 32.9829 28.5825 32.9714C28.4988 32.9638 28.2096 32.804 28.1373 32.7431C28.0193 32.648 27.9774 32.5528 27.9584 32.4044C27.7757 31.0877 27.9241 29.7062 27.7415 28.3819C27.7948 27.8186 27.6463 27.1755 27.6958 26.6237C27.7072 26.4867 27.7681 26.4182 27.8747 26.3459C28.3884 25.9995 29.2561 25.7978 29.8117 25.4744L29.8079 25.4706Z" fill="url(#paint1_linear_693_11131)" style="mix-blend-mode:multiply"/>
<path d="M30.1186 41.5493C30.111 41.4922 30.1301 41.4427 30.1643 41.397C30.3051 41.2258 30.64 41.0013 30.8189 40.83C32.2155 39.4942 32.9729 38.128 31.1195 36.7428C30.8721 36.5601 29.9436 36.0425 29.8484 35.8484C29.7 35.5478 30.1034 35.4412 30.3203 35.3575C30.6362 35.2357 31.1005 35.0835 31.4278 34.9998C31.6751 34.9389 31.7665 34.9275 31.9796 35.0911C32.5542 35.5364 33.3039 37.15 33.3534 37.8692C33.4371 39.1593 32.4933 40.1869 31.5001 40.8681C31.0891 41.1497 30.6096 41.4427 30.1186 41.5455V41.5493Z" fill="#102F4B"/>
<path d="M28.7766 44.4454C28.6625 44.3617 28.5825 42.8395 28.5635 42.5997C28.3999 40.7273 28.2286 38.7979 28.1373 36.9217C28.1221 36.6439 28.0574 36.2481 28.3199 36.0959C28.4379 36.0274 29.1838 35.7382 29.2828 35.742C29.3817 35.7458 29.4312 35.8181 29.4502 35.9132C29.4959 36.1987 29.4388 36.7847 29.4198 37.1006C29.3094 39.0909 29.1496 41.0965 28.9935 43.083C28.9631 43.4522 29.005 43.9697 28.887 44.3198C28.868 44.3769 28.8603 44.453 28.7804 44.4416L28.7766 44.4454Z" fill="url(#paint2_linear_693_11131)" style="mix-blend-mode:multiply"/>
<path fill-rule="evenodd" clip-rule="evenodd" d="M27.1059 7.1462C27.1059 7.1462 27.1059 7.16142 27.1059 7.16523C27.1059 7.18806 27.1212 7.20709 27.1478 7.22231C27.1744 7.23373 27.2201 7.24134 27.281 7.24134C27.3267 7.24134 27.3609 7.23754 27.3876 7.22612C27.4142 7.2147 27.4256 7.20328 27.4256 7.18426C27.4256 7.15762 27.3761 7.13859 27.2734 7.12337C27.262 7.12337 27.2506 7.11956 27.2467 7.11956C27.2391 7.11956 27.2315 7.11956 27.2201 7.11576C27.0603 7.08912 26.9575 7.06248 26.9118 7.03203C26.889 7.01681 26.8738 6.99778 26.8624 6.97875C26.851 6.95972 26.8434 6.93689 26.8434 6.91025C26.8434 6.84936 26.8814 6.79989 26.9537 6.76944C27.026 6.739 27.1364 6.71997 27.2734 6.71997C27.4104 6.71997 27.5169 6.73519 27.5854 6.76564C27.6539 6.79608 27.6882 6.84175 27.6882 6.90645V6.91406H27.4218C27.4218 6.89122 27.4104 6.8722 27.3799 6.86078C27.3533 6.84936 27.3114 6.84175 27.262 6.84175C27.2201 6.84175 27.1897 6.84556 27.1706 6.85317C27.1516 6.86078 27.1364 6.8722 27.1364 6.88742C27.1364 6.91406 27.1935 6.93689 27.3076 6.95592C27.3305 6.95973 27.3457 6.96353 27.3609 6.96353C27.4446 6.97495 27.5017 6.99017 27.536 6.99778C27.5702 7.0092 27.6007 7.02061 27.6273 7.03203C27.6539 7.04725 27.6768 7.06628 27.692 7.08912C27.7072 7.11195 27.7148 7.13859 27.7148 7.16523C27.7148 7.22992 27.673 7.2794 27.5931 7.31365C27.5131 7.3479 27.399 7.36693 27.2467 7.36693C27.0945 7.36693 26.9918 7.3479 26.9271 7.31745C26.8586 7.2832 26.8281 7.22992 26.8281 7.15762V7.15001H27.1097L27.1059 7.1462ZM27.829 7.35551V6.72378H28.5825V6.86078H28.1106V6.96353H28.5445V7.09673H28.1106V7.21851H28.6015V7.35551H27.829ZM28.7195 7.35551V6.72378H29.0772L29.4616 7.15001V6.72378H29.7318V7.35932H29.3589L28.9897 6.93309V7.35932H28.7195V7.35551ZM30.4663 7.10053L30.3293 6.86839L30.1885 7.10053H30.4663ZM30.0325 7.35551H29.747L30.1847 6.71997H30.5006L30.9192 7.35551H30.6033L30.5386 7.24134H30.0972L30.0287 7.35551H30.0325Z" fill="white"/>
<path fill-rule="evenodd" clip-rule="evenodd" d="M27.5013 9.58564L27.2501 9.34969L28.0189 8.01392C28.0607 7.94161 28.0074 7.85028 27.9237 7.85028H26.6641V7.51538H28.6925L27.5013 9.58564Z" fill="white"/>
<path fill-rule="evenodd" clip-rule="evenodd" d="M30.2419 9.58564L30.4931 9.34969L29.7244 8.01392C29.6825 7.94161 29.7358 7.85028 29.8195 7.85028H31.0792V7.51538H29.0508L30.2381 9.58944L30.2419 9.58564Z" fill="white"/>
<path fill-rule="evenodd" clip-rule="evenodd" d="M28.8592 7.86548L30.0009 9.75307L29.6964 9.9091L28.9619 8.67608C28.9201 8.60377 28.8135 8.60377 28.7717 8.67608C28.5243 9.09089 28.041 9.9091 28.041 9.9091L27.7441 9.76068C27.7441 9.76068 28.7983 7.96823 28.8592 7.86548Z" fill="white"/>
<path d="M28.8742 6.54877C29.1349 6.54877 29.3461 6.3375 29.3461 6.07688C29.3461 5.81626 29.1349 5.60498 28.8742 5.60498C28.6136 5.60498 28.4023 5.81626 28.4023 6.07688C28.4023 6.3375 28.6136 6.54877 28.8742 6.54877Z" fill="white"/>
<defs>
<linearGradient id="paint0_linear_693_11131" x1="0.00244084" y1="14.5635" x2="57.7451" y2="14.5635" gradientUnits="userSpaceOnUse">
<stop stop-color="#5EA9B9"/>
<stop offset="0.23" stop-color="#60ADBE"/>
<stop offset="0.52" stop-color="#68BBCD"/>
<stop offset="0.83" stop-color="#74D2E5"/>
<stop offset="1" stop-color="#7DE2F6"/>
</linearGradient>
<linearGradient id="paint1_linear_693_11131" x1="27.6806" y1="29.2153" x2="29.9944" y2="29.2153" gradientUnits="userSpaceOnUse">
<stop stop-color="#5EA9B9"/>
<stop offset="0.23" stop-color="#60ADBE"/>
<stop offset="0.52" stop-color="#68BBCD"/>
<stop offset="0.83" stop-color="#74D2E5"/>
<stop offset="1" stop-color="#7DE2F6"/>
</linearGradient>
<linearGradient id="paint2_linear_693_11131" x1="28.1182" y1="40.0956" x2="29.4654" y2="40.0956" gradientUnits="userSpaceOnUse">
<stop stop-color="#5EA9B9"/>
<stop offset="0.23" stop-color="#60ADBE"/>
<stop offset="0.52" stop-color="#68BBCD"/>
<stop offset="0.83" stop-color="#74D2E5"/>
<stop offset="1" stop-color="#7DE2F6"/>
</linearGradient>
</defs>
</svg>
