<svg width="116" height="29" viewBox="0 0 116 29" fill="none" xmlns="http://www.w3.org/2000/svg">
<g clip-path="url(#clip0_514_26374)">
<path d="M12.96 10.0156L13.8475 20.2226C13.9423 21.3131 14.8553 22.1501 15.9499 22.1501H21.0493C22.144 22.1501 23.0569 21.3131 23.1517 20.2226L24.0393 10.0156" stroke="#4F4F4F" stroke-width="1.6" stroke-linecap="round" stroke-linejoin="round"/>
<path d="M16.126 9.75133V8.95995C16.126 7.79444 17.0708 6.84961 18.2363 6.84961H18.7639C19.9295 6.84961 20.8743 7.79444 20.8743 8.95995V9.75133" stroke="#4F4F4F" stroke-width="1.6" stroke-linecap="round" stroke-linejoin="round"/>
<path d="M11.1143 10.0156H25.8867" stroke="#4F4F4F" stroke-width="1.6" stroke-linecap="round" stroke-linejoin="round"/>
</g>
<path d="M44.908 19H43.192L42.532 17.068H39.496L38.836 19H37.144L40.036 11.08H42.016L44.908 19ZM39.868 15.844H42.16L41.008 12.388L39.868 15.844ZM45.9148 19V13H47.3428L47.4508 14.176C47.6108 13.76 47.8428 13.44 48.1468 13.216C48.4588 12.992 48.8468 12.88 49.3108 12.88C49.4468 12.88 49.5708 12.892 49.6828 12.916C49.7948 12.94 49.8868 12.972 49.9588 13.012L49.7668 14.392C49.6868 14.36 49.5868 14.336 49.4668 14.32C49.3548 14.304 49.2068 14.296 49.0228 14.296C48.7828 14.296 48.5508 14.356 48.3268 14.476C48.1028 14.588 47.9188 14.764 47.7748 15.004C47.6308 15.236 47.5588 15.532 47.5588 15.892V19H45.9148ZM53.5841 12.88C54.1201 12.88 54.5721 12.96 54.9401 13.12C55.3161 13.272 55.6161 13.484 55.8401 13.756C56.0721 14.02 56.2361 14.316 56.3321 14.644L54.7961 15.196C54.7161 14.836 54.5801 14.564 54.3881 14.38C54.1961 14.196 53.9361 14.104 53.6081 14.104C53.3041 14.104 53.0441 14.176 52.8281 14.32C52.6121 14.456 52.4481 14.668 52.3361 14.956C52.2241 15.236 52.1681 15.588 52.1681 16.012C52.1681 16.436 52.2241 16.788 52.3361 17.068C52.4561 17.348 52.6241 17.556 52.8401 17.692C53.0641 17.828 53.3241 17.896 53.6201 17.896C53.8601 17.896 54.0641 17.856 54.2321 17.776C54.4001 17.688 54.5361 17.564 54.6401 17.404C54.7521 17.244 54.8281 17.052 54.8681 16.828L56.3561 17.308C56.2681 17.668 56.1041 17.984 55.8641 18.256C55.6241 18.528 55.3161 18.74 54.9401 18.892C54.5641 19.044 54.1281 19.12 53.6321 19.12C53.0161 19.12 52.4721 18.996 52.0001 18.748C51.5281 18.5 51.1641 18.144 50.9081 17.68C50.6521 17.216 50.5241 16.656 50.5241 16C50.5241 15.344 50.6521 14.784 50.9081 14.32C51.1641 13.856 51.5241 13.5 51.9881 13.252C52.4521 13.004 52.9841 12.88 53.5841 12.88ZM57.6335 19V10.372H59.2775V14.02C59.4695 13.636 59.7335 13.352 60.0695 13.168C60.4055 12.976 60.7855 12.88 61.2095 12.88C61.6255 12.88 61.9935 12.96 62.3135 13.12C62.6415 13.28 62.8975 13.524 63.0815 13.852C63.2735 14.172 63.3695 14.576 63.3695 15.064V19H61.7255V15.544C61.7255 15.024 61.6255 14.668 61.4255 14.476C61.2255 14.276 60.9695 14.176 60.6575 14.176C60.4255 14.176 60.2015 14.232 59.9855 14.344C59.7775 14.448 59.6055 14.624 59.4695 14.872C59.3415 15.112 59.2775 15.432 59.2775 15.832V19H57.6335ZM65.8912 12.136C65.5472 12.136 65.2912 12.064 65.1232 11.92C64.9552 11.768 64.8712 11.548 64.8712 11.26C64.8712 10.964 64.9552 10.744 65.1232 10.6C65.2912 10.448 65.5472 10.372 65.8912 10.372C66.2352 10.372 66.4912 10.448 66.6592 10.6C66.8272 10.744 66.9112 10.964 66.9112 11.26C66.9112 11.548 66.8272 11.768 66.6592 11.92C66.4912 12.064 66.2352 12.136 65.8912 12.136ZM66.7072 13V19H65.0632V13H66.7072ZM72.3859 13H74.0899L71.8099 19H69.9139L67.6339 13H69.3859L70.8739 17.74L72.3859 13ZM78.2918 15.172C78.2918 14.828 78.1918 14.56 77.9918 14.368C77.7998 14.176 77.5438 14.08 77.2238 14.08C76.9278 14.08 76.6678 14.156 76.4438 14.308C76.2198 14.46 76.0558 14.712 75.9518 15.064L74.5478 14.632C74.6838 14.104 74.9798 13.68 75.4358 13.36C75.8998 13.04 76.5198 12.88 77.2958 12.88C77.8238 12.88 78.2838 12.964 78.6758 13.132C79.0678 13.292 79.3718 13.536 79.5878 13.864C79.8118 14.192 79.9238 14.604 79.9238 15.1V17.536C79.9238 17.84 80.0678 17.992 80.3558 17.992C80.4918 17.992 80.6198 17.972 80.7398 17.932L80.6438 18.952C80.4358 19.056 80.1758 19.108 79.8638 19.108C79.5838 19.108 79.3318 19.06 79.1078 18.964C78.8838 18.868 78.7078 18.724 78.5798 18.532C78.4518 18.332 78.3878 18.084 78.3878 17.788V17.74L78.6758 17.692C78.6278 17.996 78.4958 18.256 78.2798 18.472C78.0638 18.68 77.7998 18.84 77.4878 18.952C77.1838 19.064 76.8678 19.12 76.5398 19.12C76.1318 19.12 75.7798 19.06 75.4838 18.94C75.1878 18.812 74.9598 18.628 74.7998 18.388C74.6398 18.148 74.5598 17.852 74.5598 17.5C74.5598 17.052 74.7038 16.688 74.9918 16.408C75.2798 16.12 75.6918 15.924 76.2278 15.82L78.4838 15.364L78.4718 16.384L77.0318 16.672C76.7598 16.728 76.5518 16.804 76.4078 16.9C76.2718 16.988 76.2038 17.136 76.2038 17.344C76.2038 17.544 76.2758 17.696 76.4198 17.8C76.5718 17.904 76.7518 17.956 76.9598 17.956C77.1278 17.956 77.2918 17.936 77.4518 17.896C77.6118 17.856 77.7558 17.792 77.8838 17.704C78.0118 17.616 78.1118 17.496 78.1838 17.344C78.2558 17.192 78.2918 17.008 78.2918 16.792V15.172ZM81.7624 19V13H83.1904L83.2984 14.176C83.4584 13.76 83.6904 13.44 83.9944 13.216C84.3064 12.992 84.6944 12.88 85.1584 12.88C85.2944 12.88 85.4184 12.892 85.5304 12.916C85.6424 12.94 85.7344 12.972 85.8064 13.012L85.6144 14.392C85.5344 14.36 85.4344 14.336 85.3144 14.32C85.2024 14.304 85.0544 14.296 84.8704 14.296C84.6304 14.296 84.3984 14.356 84.1744 14.476C83.9504 14.588 83.7664 14.764 83.6224 15.004C83.4784 15.236 83.4064 15.532 83.4064 15.892V19H81.7624ZM90.2703 19V13H91.6983L91.8063 14.176C91.9663 13.76 92.1983 13.44 92.5023 13.216C92.8143 12.992 93.2023 12.88 93.6663 12.88C93.8023 12.88 93.9263 12.892 94.0383 12.916C94.1503 12.94 94.2423 12.972 94.3143 13.012L94.1223 14.392C94.0423 14.36 93.9423 14.336 93.8223 14.32C93.7103 14.304 93.5623 14.296 93.3783 14.296C93.1383 14.296 92.9063 14.356 92.6823 14.476C92.4583 14.588 92.2743 14.764 92.1303 15.004C91.9863 15.236 91.9143 15.532 91.9143 15.892V19H90.2703ZM97.9516 12.88C98.5596 12.88 99.0916 13.004 99.5476 13.252C100.012 13.5 100.372 13.856 100.628 14.32C100.892 14.784 101.024 15.344 101.024 16C101.024 16.648 100.892 17.208 100.628 17.68C100.372 18.144 100.012 18.5 99.5476 18.748C99.0916 18.996 98.5596 19.12 97.9516 19.12C97.3516 19.12 96.8196 18.996 96.3556 18.748C95.8916 18.5 95.5276 18.144 95.2636 17.68C95.0076 17.208 94.8796 16.648 94.8796 16C94.8796 15.344 95.0076 14.784 95.2636 14.32C95.5276 13.856 95.8916 13.5 96.3556 13.252C96.8196 13.004 97.3516 12.88 97.9516 12.88ZM97.9516 14.104C97.6476 14.104 97.3876 14.176 97.1716 14.32C96.9636 14.456 96.8036 14.664 96.6916 14.944C96.5796 15.224 96.5236 15.576 96.5236 16C96.5236 16.424 96.5796 16.776 96.6916 17.056C96.8036 17.336 96.9636 17.548 97.1716 17.692C97.3876 17.828 97.6476 17.896 97.9516 17.896C98.2476 17.896 98.4996 17.828 98.7076 17.692C98.9236 17.548 99.0876 17.336 99.1996 17.056C99.3116 16.776 99.3676 16.424 99.3676 16C99.3676 15.576 99.3116 15.224 99.1996 14.944C99.0876 14.664 98.9236 14.456 98.7076 14.32C98.4996 14.176 98.2476 14.104 97.9516 14.104ZM104.019 10.372V17.152C104.019 17.432 104.067 17.628 104.163 17.74C104.259 17.852 104.419 17.908 104.643 17.908C104.779 17.908 104.891 17.9 104.979 17.884C105.067 17.86 105.179 17.828 105.315 17.788L105.171 18.868C105.035 18.948 104.863 19.008 104.655 19.048C104.455 19.096 104.255 19.12 104.055 19.12C103.471 19.12 103.043 18.98 102.771 18.7C102.507 18.412 102.375 17.956 102.375 17.332V10.372H104.019Z" fill="#4F4F4F"/>
<defs>
<clipPath id="clip0_514_26374">
<rect width="17" height="17" fill="white" transform="translate(10 6)"/>
</clipPath>
</defs>
</svg>
