<svg width="32" height="32" viewBox="0 0 32 32" fill="none" xmlns="http://www.w3.org/2000/svg">
<path fill-rule="evenodd" clip-rule="evenodd" d="M14.1975 23.5001L10.4942 22.6768C9.81583 22.5268 9.33333 21.9251 9.33333 21.2309V10.8051C9.33333 10.1109 9.81583 9.50928 10.4933 9.35928L14.1967 8.53595C15.1225 8.33011 16 9.03428 16 9.98261V22.0543C16 23.0018 15.1225 23.7059 14.1975 23.5001V23.5001Z" stroke="#002C4D" stroke-width="1.5" stroke-linecap="round" stroke-linejoin="round"/>
<path d="M13.5003 15.1504V16.8171" stroke="#002C4D" stroke-width="1.5" stroke-linecap="round" stroke-linejoin="round"/>
<path d="M22.667 19.334V21.0357C22.667 21.9565 21.9212 22.7023 21.0003 22.7023H18.5003" stroke="#002C4D" stroke-width="1.5" stroke-linecap="round" stroke-linejoin="round"/>
<path d="M22.667 12.6673V11.0007C22.667 10.0798 21.9212 9.33398 21.0003 9.33398H18.5003" stroke="#002C4D" stroke-width="1.5" stroke-linecap="round" stroke-linejoin="round"/>
<path d="M22.667 16.0007H18.5003" stroke="#002C4D" stroke-width="1.5" stroke-linecap="round" stroke-linejoin="round"/>
<path d="M20.167 17.6673L18.5003 16.0007L20.167 14.334" stroke="#002C4D" stroke-width="1.5" stroke-linecap="round" stroke-linejoin="round"/>
</svg>
