<svg width="116" height="29" viewBox="0 0 116 29" fill="none" xmlns="http://www.w3.org/2000/svg">
<path d="M11.2754 21.3948L15.5108 20.3982L24.7718 11.1372C25.161 10.748 25.161 10.117 24.7718 9.72782L22.9423 7.89834C22.5532 7.50915 21.9222 7.50915 21.533 7.89834L12.272 17.1594L11.2754 21.3948Z" stroke="#4F4F4F" stroke-width="1.5" stroke-linecap="round" stroke-linejoin="round"/>
<path d="M25.7253 21.3945H20.2441" stroke="#4F4F4F" stroke-width="1.5" stroke-linecap="round" stroke-linejoin="round"/>
<path d="M38.032 19V11.08H43.972V12.412H39.688V14.38H43.06V15.652H39.688V17.668H44.14V19H38.032ZM47.5851 19.12C47.0891 19.12 46.6451 18.996 46.2531 18.748C45.8691 18.5 45.5651 18.144 45.3411 17.68C45.1251 17.216 45.0171 16.66 45.0171 16.012C45.0171 15.348 45.1331 14.784 45.3651 14.32C45.5971 13.848 45.9091 13.492 46.3011 13.252C46.7011 13.004 47.1491 12.88 47.6451 12.88C48.1731 12.88 48.6091 13.032 48.9531 13.336C49.2971 13.64 49.5211 14.032 49.6251 14.512L49.4691 14.704V10.372H51.1131V19H49.6371L49.5291 17.176L49.7331 17.272C49.6771 17.648 49.5491 17.976 49.3491 18.256C49.1491 18.528 48.8971 18.74 48.5931 18.892C48.2891 19.044 47.9531 19.12 47.5851 19.12ZM48.0651 17.86C48.3531 17.86 48.6011 17.788 48.8091 17.644C49.0171 17.492 49.1771 17.272 49.2891 16.984C49.4091 16.696 49.4691 16.352 49.4691 15.952C49.4691 15.568 49.4131 15.244 49.3011 14.98C49.1891 14.708 49.0291 14.5 48.8211 14.356C48.6131 14.212 48.3691 14.14 48.0891 14.14C47.6411 14.14 47.2891 14.3 47.0331 14.62C46.7851 14.932 46.6611 15.392 46.6611 16C46.6611 16.608 46.7851 17.072 47.0331 17.392C47.2811 17.704 47.6251 17.86 48.0651 17.86ZM53.6686 12.136C53.3246 12.136 53.0686 12.064 52.9006 11.92C52.7326 11.768 52.6486 11.548 52.6486 11.26C52.6486 10.964 52.7326 10.744 52.9006 10.6C53.0686 10.448 53.3246 10.372 53.6686 10.372C54.0126 10.372 54.2686 10.448 54.4366 10.6C54.6046 10.744 54.6886 10.964 54.6886 11.26C54.6886 11.548 54.6046 11.768 54.4366 11.92C54.2686 12.064 54.0126 12.136 53.6686 12.136ZM54.4846 13V19H52.8406V13H54.4846ZM58.3513 11.164V17.044C58.3513 17.332 58.4233 17.544 58.5673 17.68C58.7193 17.808 58.9233 17.872 59.1793 17.872C59.3793 17.872 59.5553 17.844 59.7073 17.788C59.8593 17.724 59.9953 17.64 60.1153 17.536L60.3793 18.628C60.1873 18.78 59.9473 18.9 59.6593 18.988C59.3713 19.076 59.0673 19.12 58.7473 19.12C58.3473 19.12 57.9913 19.06 57.6793 18.94C57.3753 18.82 57.1353 18.628 56.9593 18.364C56.7913 18.1 56.7073 17.748 56.7073 17.308V11.62L58.3513 11.164ZM60.2713 13V14.224H55.6033V13H60.2713ZM64.8621 15.172C64.8621 14.828 64.7621 14.56 64.5621 14.368C64.3701 14.176 64.1141 14.08 63.7941 14.08C63.4981 14.08 63.2381 14.156 63.0141 14.308C62.7901 14.46 62.6261 14.712 62.5221 15.064L61.1181 14.632C61.2541 14.104 61.5501 13.68 62.0061 13.36C62.4701 13.04 63.0901 12.88 63.8661 12.88C64.3941 12.88 64.8541 12.964 65.2461 13.132C65.6381 13.292 65.9421 13.536 66.1581 13.864C66.3821 14.192 66.4941 14.604 66.4941 15.1V17.536C66.4941 17.84 66.6381 17.992 66.9261 17.992C67.0621 17.992 67.1901 17.972 67.3101 17.932L67.2141 18.952C67.0061 19.056 66.7461 19.108 66.4341 19.108C66.1541 19.108 65.9021 19.06 65.6781 18.964C65.4541 18.868 65.2781 18.724 65.1501 18.532C65.0221 18.332 64.9581 18.084 64.9581 17.788V17.74L65.2461 17.692C65.1981 17.996 65.0661 18.256 64.8501 18.472C64.6341 18.68 64.3701 18.84 64.0581 18.952C63.7541 19.064 63.4381 19.12 63.1101 19.12C62.7021 19.12 62.3501 19.06 62.0541 18.94C61.7581 18.812 61.5301 18.628 61.3701 18.388C61.2101 18.148 61.1301 17.852 61.1301 17.5C61.1301 17.052 61.2741 16.688 61.5621 16.408C61.8501 16.12 62.2621 15.924 62.7981 15.82L65.0541 15.364L65.0421 16.384L63.6021 16.672C63.3301 16.728 63.1221 16.804 62.9781 16.9C62.8421 16.988 62.7741 17.136 62.7741 17.344C62.7741 17.544 62.8461 17.696 62.9901 17.8C63.1421 17.904 63.3221 17.956 63.5301 17.956C63.6981 17.956 63.8621 17.936 64.0221 17.896C64.1821 17.856 64.3261 17.792 64.4541 17.704C64.5821 17.616 64.6821 17.496 64.7541 17.344C64.8261 17.192 64.8621 17.008 64.8621 16.792V15.172ZM68.3328 19V13H69.7608L69.8688 14.176C70.0288 13.76 70.2608 13.44 70.5648 13.216C70.8768 12.992 71.2648 12.88 71.7288 12.88C71.8648 12.88 71.9888 12.892 72.1008 12.916C72.2128 12.94 72.3048 12.972 72.3768 13.012L72.1848 14.392C72.1048 14.36 72.0048 14.336 71.8848 14.32C71.7728 14.304 71.6248 14.296 71.4408 14.296C71.2008 14.296 70.9688 14.356 70.7448 14.476C70.5208 14.588 70.3368 14.764 70.1928 15.004C70.0488 15.236 69.9768 15.532 69.9768 15.892V19H68.3328ZM76.8406 19V13H78.2686L78.3766 14.176C78.5366 13.76 78.7686 13.44 79.0726 13.216C79.3846 12.992 79.7726 12.88 80.2366 12.88C80.3726 12.88 80.4966 12.892 80.6086 12.916C80.7206 12.94 80.8126 12.972 80.8846 13.012L80.6926 14.392C80.6126 14.36 80.5126 14.336 80.3926 14.32C80.2806 14.304 80.1326 14.296 79.9486 14.296C79.7086 14.296 79.4766 14.356 79.2526 14.476C79.0286 14.588 78.8446 14.764 78.7006 15.004C78.5566 15.236 78.4846 15.532 78.4846 15.892V19H76.8406ZM84.5219 12.88C85.1299 12.88 85.6619 13.004 86.1179 13.252C86.5819 13.5 86.9419 13.856 87.1979 14.32C87.4619 14.784 87.5939 15.344 87.5939 16C87.5939 16.648 87.4619 17.208 87.1979 17.68C86.9419 18.144 86.5819 18.5 86.1179 18.748C85.6619 18.996 85.1299 19.12 84.5219 19.12C83.9219 19.12 83.3899 18.996 82.9259 18.748C82.4619 18.5 82.0979 18.144 81.8339 17.68C81.5779 17.208 81.4499 16.648 81.4499 16C81.4499 15.344 81.5779 14.784 81.8339 14.32C82.0979 13.856 82.4619 13.5 82.9259 13.252C83.3899 13.004 83.9219 12.88 84.5219 12.88ZM84.5219 14.104C84.2179 14.104 83.9579 14.176 83.7419 14.32C83.5339 14.456 83.3739 14.664 83.2619 14.944C83.1499 15.224 83.0939 15.576 83.0939 16C83.0939 16.424 83.1499 16.776 83.2619 17.056C83.3739 17.336 83.5339 17.548 83.7419 17.692C83.9579 17.828 84.2179 17.896 84.5219 17.896C84.8179 17.896 85.0699 17.828 85.2779 17.692C85.4939 17.548 85.6579 17.336 85.7699 17.056C85.8819 16.776 85.9379 16.424 85.9379 16C85.9379 15.576 85.8819 15.224 85.7699 14.944C85.6579 14.664 85.4939 14.456 85.2779 14.32C85.0699 14.176 84.8179 14.104 84.5219 14.104ZM90.5895 10.372V17.152C90.5895 17.432 90.6375 17.628 90.7335 17.74C90.8295 17.852 90.9895 17.908 91.2135 17.908C91.3495 17.908 91.4615 17.9 91.5495 17.884C91.6375 17.86 91.7495 17.828 91.8855 17.788L91.7415 18.868C91.6055 18.948 91.4335 19.008 91.2255 19.048C91.0255 19.096 90.8255 19.12 90.6255 19.12C90.0415 19.12 89.6135 18.98 89.3415 18.7C89.0775 18.412 88.9455 17.956 88.9455 17.332V10.372H90.5895Z" fill="#4F4F4F"/>
</svg>
